<mxfile host="app.diagrams.net" agent="Mozilla/5.0 (Macintosh; Intel Mac OS X 10_15_7) AppleWebKit/605.1.15 (KHTML, like Gecko) Version/18.0.1 Safari/605.1.15" version="24.8.4">
  <diagram name="Page-1" id="CH_hg84p0OCZ-qr93urq">
    <mxGraphModel dx="1802" dy="812" grid="1" gridSize="10" guides="1" tooltips="1" connect="1" arrows="1" fold="1" page="1" pageScale="1" pageWidth="1400" pageHeight="1000" math="0" shadow="0">
      <root>
        <mxCell id="0" />
        <mxCell id="1" parent="0" />
        <mxCell id="Zw3f4Pixwr-wm7SCuNcm-1" value="Client" style="swimlane;fontStyle=1;align=center;verticalAlign=top;childLayout=stackLayout;horizontal=1;startSize=26;horizontalStack=0;resizeParent=1;resizeParentMax=0;resizeLast=0;collapsible=1;marginBottom=0;whiteSpace=wrap;html=1;" vertex="1" parent="1">
          <mxGeometry x="410" y="260" width="320" height="240" as="geometry" />
        </mxCell>
        <mxCell id="Zw3f4Pixwr-wm7SCuNcm-2" value="-name: String&lt;div&gt;-age: int&lt;/div&gt;&lt;div&gt;-username: String&lt;/div&gt;&lt;div&gt;-password: String&lt;/div&gt;&lt;div&gt;-phoneNumber: String&lt;/div&gt;" style="text;strokeColor=none;fillColor=none;align=left;verticalAlign=top;spacingLeft=4;spacingRight=4;overflow=hidden;rotatable=0;points=[[0,0.5],[1,0.5]];portConstraint=eastwest;whiteSpace=wrap;html=1;" vertex="1" parent="Zw3f4Pixwr-wm7SCuNcm-1">
          <mxGeometry y="26" width="320" height="84" as="geometry" />
        </mxCell>
        <mxCell id="Zw3f4Pixwr-wm7SCuNcm-3" value="" style="line;strokeWidth=1;fillColor=none;align=left;verticalAlign=middle;spacingTop=-1;spacingLeft=3;spacingRight=3;rotatable=0;labelPosition=right;points=[];portConstraint=eastwest;strokeColor=inherit;" vertex="1" parent="Zw3f4Pixwr-wm7SCuNcm-1">
          <mxGeometry y="110" width="320" height="10" as="geometry" />
        </mxCell>
        <mxCell id="Zw3f4Pixwr-wm7SCuNcm-4" value="+ method(type): type" style="text;strokeColor=none;fillColor=none;align=left;verticalAlign=top;spacingLeft=4;spacingRight=4;overflow=hidden;rotatable=0;points=[[0,0.5],[1,0.5]];portConstraint=eastwest;whiteSpace=wrap;html=1;" vertex="1" parent="Zw3f4Pixwr-wm7SCuNcm-1">
          <mxGeometry y="120" width="320" height="120" as="geometry" />
        </mxCell>
        <mxCell id="Zw3f4Pixwr-wm7SCuNcm-5" value="Lesson" style="swimlane;fontStyle=1;align=center;verticalAlign=top;childLayout=stackLayout;horizontal=1;startSize=26;horizontalStack=0;resizeParent=1;resizeParentMax=0;resizeLast=0;collapsible=1;marginBottom=0;whiteSpace=wrap;html=1;" vertex="1" parent="1">
          <mxGeometry x="850" y="260" width="320" height="240" as="geometry" />
        </mxCell>
        <mxCell id="Zw3f4Pixwr-wm7SCuNcm-6" value="-lessonType: LessonType&lt;div&gt;-startDate: String&lt;/div&gt;&lt;div&gt;-endDate: String&lt;br&gt;&lt;div&gt;-mode: Boolean&lt;/div&gt;&lt;/div&gt;" style="text;strokeColor=none;fillColor=none;align=left;verticalAlign=top;spacingLeft=4;spacingRight=4;overflow=hidden;rotatable=0;points=[[0,0.5],[1,0.5]];portConstraint=eastwest;whiteSpace=wrap;html=1;" vertex="1" parent="Zw3f4Pixwr-wm7SCuNcm-5">
          <mxGeometry y="26" width="320" height="84" as="geometry" />
        </mxCell>
        <mxCell id="Zw3f4Pixwr-wm7SCuNcm-7" value="" style="line;strokeWidth=1;fillColor=none;align=left;verticalAlign=middle;spacingTop=-1;spacingLeft=3;spacingRight=3;rotatable=0;labelPosition=right;points=[];portConstraint=eastwest;strokeColor=inherit;" vertex="1" parent="Zw3f4Pixwr-wm7SCuNcm-5">
          <mxGeometry y="110" width="320" height="10" as="geometry" />
        </mxCell>
        <mxCell id="Zw3f4Pixwr-wm7SCuNcm-8" value="+newLessonToOffer(lessonType, mode)&lt;div&gt;+findLocation(locations)&lt;/div&gt;&lt;div&gt;+specificTime(schedule)&lt;/div&gt;&lt;div&gt;+noLessonAvailable()&lt;/div&gt;&lt;div&gt;+createLesson(LessonType, mode, startTime, timeSlots)&lt;/div&gt;&lt;div&gt;+getExactSchedule()&lt;/div&gt;&lt;div&gt;+setInstructor(i)&lt;/div&gt;" style="text;strokeColor=none;fillColor=none;align=left;verticalAlign=top;spacingLeft=4;spacingRight=4;overflow=hidden;rotatable=0;points=[[0,0.5],[1,0.5]];portConstraint=eastwest;whiteSpace=wrap;html=1;" vertex="1" parent="Zw3f4Pixwr-wm7SCuNcm-5">
          <mxGeometry y="120" width="320" height="120" as="geometry" />
        </mxCell>
      </root>
    </mxGraphModel>
  </diagram>
</mxfile>
